HIERARCHY
ROOT Hips
{
  OFFSET 5.84602e-005 68.8428 3.50346
  CHANNELS 6 Xposition Yposition Zposition Zrotation Xrotation Yrotation
  JOINT Spine
  {
    OFFSET 0 8.597 -4.6522
    CHANNELS 3 Zrotation Xrotation Yrotation
    JOINT Spine1
    {
      OFFSET 0 7.8454 0.4098
      CHANNELS 3 Zrotation Xrotation Yrotation
      JOINT Spine2
      {
        OFFSET 0 9.7078 -2.1609
        CHANNELS 3 Zrotation Xrotation Yrotation
        JOINT Neck
        {
          OFFSET 0 21.8761 -0.4549
          CHANNELS 3 Zrotation Xrotation Yrotation
          JOINT Head
          {
            OFFSET 0 12.3537 3.3602
            CHANNELS 3 Zrotation Xrotation Yrotation
            End Site
            {
              OFFSET 0.0001 18.9506 0.5657
            }
          }
        }
        JOINT LeftShoulder
        {
          OFFSET 2.2086 21.1115 7.2329
          CHANNELS 3 Zrotation Xrotation Yrotation
          JOINT LeftArm
          {
            OFFSET 13.1193 3.0282 -4.8998
            CHANNELS 3 Zrotation Xrotation Yrotation
            JOINT LeftForeArm
            {
              OFFSET 27.4081 -0.0973053 -0.2375
              CHANNELS 3 Zrotation Xrotation Yrotation
              JOINT LeftHand
              {
                OFFSET 22.8641 0.0662994 -0.1369
                CHANNELS 3 Zrotation Xrotation Yrotation
                JOINT LeftHandIndex1
                {
                  OFFSET 8.8614 0.775009 2.4612
                  CHANNELS 3 Zrotation Xrotation Yrotation
                  JOINT LeftHandIndex2
                  {
                    OFFSET 3.3146 -0.808304 0.5841
                    CHANNELS 3 Zrotation Xrotation Yrotation
                    JOINT LeftHandIndex3
                    {
                      OFFSET 2.2628 -0.552002 0.3989
                      CHANNELS 3 Zrotation Xrotation Yrotation
                      End Site
                      {
                        OFFSET 1.6102 -0.4807 0.2612
                      }
                    }
                  }
                }
                JOINT LeftHandMiddle1
                {
                  OFFSET 8.9937 0.895004 0.2143
                  CHANNELS 3 Zrotation Xrotation Yrotation
                  JOINT LeftHandMiddle2
                  {
                    OFFSET 4.0984 0.0113983 -0.0242
                    CHANNELS 3 Zrotation Xrotation Yrotation
                    JOINT LeftHandMiddle3
                    {
                      OFFSET 2.2716 0.00689697 -0.0138001
                      CHANNELS 3 Zrotation Xrotation Yrotation
                      End Site
                      {
                        OFFSET 2.0404 -0.1441 0.0027
                      }
                    }
                  }
                }
                JOINT LeftHandRing1
                {
                  OFFSET 8.5234 0.597198 -2.0164
                  CHANNELS 3 Zrotation Xrotation Yrotation
                  JOINT LeftHandRing2
                  {
                    OFFSET 3.7188 -0.188293 -0.2328
                    CHANNELS 3 Zrotation Xrotation Yrotation
                    JOINT LeftHandRing3
                    {
                      OFFSET 2.1191 -0.106598 -0.1332
                      CHANNELS 3 Zrotation Xrotation Yrotation
                      End Site
                      {
                        OFFSET 1.8737 -0.2304 -0.0886
                      }
                    }
                  }
                }
                JOINT LeftHandPinky1
                {
                  OFFSET 7.9094 -0.601089 -3.4825
                  CHANNELS 3 Zrotation Xrotation Yrotation
                  JOINT LeftHandPinky2
                  {
                    OFFSET 2.2874 -0.477005 -0.6314
                    CHANNELS 3 Zrotation Xrotation Yrotation
                    JOINT LeftHandPinky3
                    {
                      OFFSET 1.6774 -0.349396 -0.4633
                      CHANNELS 3 Zrotation Xrotation Yrotation
                      End Site
                      {
                        OFFSET 1.4888 -0.4091 -0.3416
                      }
                    }
                  }
                }
                JOINT LeftHandThumb1
                {
                  OFFSET 1.833 -1.3875 1.3896
                  CHANNELS 3 Zrotation Xrotation Yrotation
                  JOINT LeftHandThumb2
                  {
                    OFFSET 3.4129 -1.121 2.5732
                    CHANNELS 3 Zrotation Xrotation Yrotation
                    JOINT LeftHandThumb3
                    {
                      OFFSET 2.2474 -0.804199 1.6192
                      CHANNELS 3 Zrotation Xrotation Yrotation
                      End Site
                      {
                        OFFSET 1.6527 -0.5689 1.1317
                      }
                    }
                  }
                }
              }
            }
          }
        }
        JOINT RightShoulder
        {
          OFFSET -2.2086 21.1115 7.2329
          CHANNELS 3 Zrotation Xrotation Yrotation
          JOINT RightArm
          {
            OFFSET -13.1216 3.0287 -4.9007
            CHANNELS 3 Zrotation Xrotation Yrotation
            JOINT RightForeArm
            {
              OFFSET -27.4081 -0.0973053 -0.2375
              CHANNELS 3 Zrotation Xrotation Yrotation
              JOINT RightHand
              {
                OFFSET -22.8641 0.0664063 -0.1369
                CHANNELS 3 Zrotation Xrotation Yrotation
                JOINT RightHandIndex1
                {
                  OFFSET -8.8614 0.774994 2.4612
                  CHANNELS 3 Zrotation Xrotation Yrotation
                  JOINT RightHandIndex2
                  {
                    OFFSET -3.3146 -0.808304 0.5841
                    CHANNELS 3 Zrotation Xrotation Yrotation
                    JOINT RightHandIndex3
                    {
                      OFFSET -2.2628 -0.552002 0.3989
                      CHANNELS 3 Zrotation Xrotation Yrotation
                      End Site
                      {
                        OFFSET -1.6102 -0.4807 0.2612
                      }
                    }
                  }
                }
                JOINT RightHandMiddle1
                {
                  OFFSET -8.9937 0.894989 0.2143
                  CHANNELS 3 Zrotation Xrotation Yrotation
                  JOINT RightHandMiddle2
                  {
                    OFFSET -4.0984 0.0113983 -0.0242
                    CHANNELS 3 Zrotation Xrotation Yrotation
                    JOINT RightHandMiddle3
                    {
                      OFFSET -2.2716 0.00691223 -0.0138001
                      CHANNELS 3 Zrotation Xrotation Yrotation
                      End Site
                      {
                        OFFSET -2.0404 -0.1441 0.0027
                      }
                    }
                  }
                }
                JOINT RightHandRing1
                {
                  OFFSET -8.5234 0.597198 -2.0164
                  CHANNELS 3 Zrotation Xrotation Yrotation
                  JOINT RightHandRing2
                  {
                    OFFSET -3.7188 -0.188309 -0.2328
                    CHANNELS 3 Zrotation Xrotation Yrotation
                    JOINT RightHandRing3
                    {
                      OFFSET -2.1191 -0.106598 -0.1332
                      CHANNELS 3 Zrotation Xrotation Yrotation
                      End Site
                      {
                        OFFSET -1.8737 -0.2304 -0.0886
                      }
                    }
                  }
                }
                JOINT RightHandPinky1
                {
                  OFFSET -7.9094 -0.601105 -3.4825
                  CHANNELS 3 Zrotation Xrotation Yrotation
                  JOINT RightHandPinky2
                  {
                    OFFSET -2.2874 -0.477005 -0.6314
                    CHANNELS 3 Zrotation Xrotation Yrotation
                    JOINT RightHandPinky3
                    {
                      OFFSET -1.6774 -0.349396 -0.4633
                      CHANNELS 3 Zrotation Xrotation Yrotation
                      End Site
                      {
                        OFFSET -1.4888 -0.4091 -0.3416
                      }
                    }
                  }
                }
                JOINT RightHandThumb1
                {
                  OFFSET -1.833 -1.38751 1.3896
                  CHANNELS 3 Zrotation Xrotation Yrotation
                  JOINT RightHandThumb2
                  {
                    OFFSET -3.41299 -1.12099 2.5732
                    CHANNELS 3 Zrotation Xrotation Yrotation
                    JOINT RightHandThumb3
                    {
                      OFFSET -2.24741 -0.804108 1.6192
                      CHANNELS 3 Zrotation Xrotation Yrotation
                      End Site
                      {
                        OFFSET -1.6527 -0.5689 1.1317
                      }
                    }
                  }
                }
              }
            }
          }
        }
      }
    }
  }
  JOINT RightUpLeg
  {
    OFFSET -9.1966 3.8861 -0.7581
    CHANNELS 3 Zrotation Xrotation Yrotation
    JOINT RightLeg
    {
      OFFSET -0.7359 -41.0265 0
      CHANNELS 3 Zrotation Xrotation Yrotation
      JOINT RightFoot
      {
        OFFSET 0 -40.2855 0
        CHANNELS 3 Zrotation Xrotation Yrotation
        JOINT RightToeBase
        {
          OFFSET 0 -5.6122 11.7359
          CHANNELS 3 Zrotation Xrotation Yrotation
          End Site
          {
            OFFSET 0 0 7.8731
          }
        }
      }
    }
  }
  JOINT LeftUpLeg
  {
    OFFSET 9.1965 3.8864 -0.7581
    CHANNELS 3 Zrotation Xrotation Yrotation
    JOINT LeftLeg
    {
      OFFSET 0.7359 -41.0268 0
      CHANNELS 3 Zrotation Xrotation Yrotation
      JOINT LeftFoot
      {
        OFFSET 0 -40.2855 0
        CHANNELS 3 Zrotation Xrotation Yrotation
        JOINT LeftToeBase
        {
          OFFSET 0 -5.6122 11.7359
          CHANNELS 3 Zrotation Xrotation Yrotation
          End Site
          {
            OFFSET 0 0 7.8731
          }
        }
      }
    }
  }
}
MOTION
Frames:	4
Frame Time:	0.0333333
-0.000567582 16.5998 -37.6433 0.00771996 -70.8934 -179.974 -0.0881337 0.426275 -0.126261 -0.175334 0.853052 -0.251875 -0.175335 0.853041 -0.251875 -2.23369e-005 2.92379 -2.29274e-005 -5.5738e-008 4.92174 9.41008e-008 -7.10237 9.53884 -36.0493 0.923287 -3.5141 -26.5065 2.74763 -10.735 -7.60321 63.2875 -11.0784 -13.8679 3.18055e-015 -5.96354e-016 -0 3.17668e-007 -2.07115e-007 -5.27635e-006 1.59028e-015 1.39149e-015 -1.59028e-015 3.18055e-015 -5.96354e-016 -0 -0.0145983 -8.8931e-005 3.05999e-006 4.04542e-008 2.43515e-007 -3.49657e-006 3.18055e-015 -5.96354e-016 -0 -0.0187996 -0.00117678 4.71341e-005 3.98743e-008 2.43502e-007 -3.49656e-006 3.18055e-015 -5.96354e-016 -0 -0.0122379 -0.00323921 0.00068188 4.96564e-032 -1.78906e-015 1.59028e-015 3.18055e-015 -5.96354e-016 -0 3.17668e-007 -2.07115e-007 -5.27635e-006 1.59028e-015 1.39149e-015 -1.59028e-015 7.03121 9.54961 35.4839 -1.00484 -3.53013 27.6056 -2.85949 -10.7775 7.5313 -63.1712 -10.7277 13.9714 1.14338e-007 -4.18623e-007 -3.57674e-006 1.55219e-007 4.42294e-008 -8.12046e-007 -1.59028e-015 -3.57812e-015 -0 1.14338e-007 -4.18623e-007 -3.57674e-006 0.0149881 -9.1118e-005 3.14963e-006 1.59028e-015 -1.78906e-015 4.77083e-015 1.14338e-007 -4.18623e-007 -3.57674e-006 0.0190107 -0.00119195 -4.99595e-005 3.18055e-015 2.10712e-014 -0 1.14338e-007 -4.18623e-007 -3.57674e-006 0.0122113 -0.00323145 -0.000671259 -3.18055e-015 -5.1684e-015 3.18055e-015 1.14338e-007 -4.18623e-007 -3.57674e-006 1.55219e-007 4.42294e-008 -8.12046e-007 -1.59028e-015 -3.57812e-015 -0 -120.632 -57.2841 -134.522 -173.108 46.1275 169.679 -14.9995 43.7263 4.67036 -1.69551e-006 -2.63552e-008 2.61709e-007 120.644 -57.2999 134.502 173.106 46.128 -169.684 14.9781 43.7077 -4.64868 9.37922e-007 1.92833e-006 -2.33049e-007 
-0.000153311 16.7263 -37.4249 0.0371733 -71.7179 -179.934 -0.0881167 0.401481 -0.126581 -0.175352 0.803558 -0.252552 -0.175352 0.803584 -0.252552 3.06176e-005 1.93179 5.63859e-005 3.49741e-008 3.92999 1.00442e-007 -7.18224 9.12202 -34.5125 0.932727 -3.46743 -27.6899 3.17049 -10.7782 -8.65094 63.1996 -10.5834 -13.2718 -4.96564e-032 1.78906e-015 1.59028e-015 -1.65521e-031 1.98785e-015 4.77083e-015 -3.18055e-015 2.18663e-015 4.77083e-015 -4.96564e-032 1.78906e-015 1.59028e-015 -0.014618 -8.90086e-005 -3.29714e-006 5.51738e-033 -1.98785e-016 1.59028e-015 -4.96564e-032 1.78906e-015 1.59028e-015 -0.0187553 -0.0011759 6.06781e-005 -4.77083e-015 2.38542e-015 1.59028e-015 -4.96564e-032 1.78906e-015 1.59028e-015 -0.0122139 -0.00323255 0.000672553 -3.18055e-015 -6.16232e-015 -0 -4.96564e-032 1.78906e-015 1.59028e-015 -1.65521e-031 1.98785e-015 4.77083e-015 -3.18055e-015 2.18663e-015 4.77083e-015 7.11223 9.13299 33.9708 -1.01123 -3.48369 28.7421 -3.27746 -10.8196 8.58179 -63.0872 -10.2484 13.3703 -5.09515e-008 5.99703e-007 -4.67871e-008 -5.48752e-007 -6.50655e-007 4.08304e-008 -5.09515e-008 5.99703e-007 -4.67871e-008 -5.09515e-008 5.99703e-007 -4.67871e-008 0.0149585 -9.07438e-005 2.56256e-008 -5.09523e-008 5.99697e-007 -4.68653e-008 -5.09515e-008 5.99703e-007 -4.67871e-008 0.0189642 -0.00119 -6.37949e-005 -5.09533e-008 5.99696e-007 -4.68858e-008 -5.09515e-008 5.99703e-007 -4.67871e-008 0.0122325 -0.00323866 -0.000679472 -1.73439e-007 1.01501e-006 3.5159e-006 -5.09515e-008 5.99703e-007 -4.67871e-008 -5.48752e-007 -6.50655e-007 4.08304e-008 -5.09515e-008 5.99703e-007 -4.67871e-008 -122.269 -56.9078 -136.238 -173.111 46.1166 169.674 -14.7499 44.0047 4.53828 -1.76556e-006 -6.02553e-008 6.18991e-008 122.282 -56.9229 136.219 173.109 46.1163 -169.679 14.7291 43.9863 -4.51767 -3.4942e-008 1.68075e-008 -9.94181e-008 
0.000254874 16.8428 -37.2268 0.0668378 -72.4726 -179.894 -0.0880253 0.379065 -0.126873 -0.175217 0.758379 -0.253172 -0.175216 0.758386 -0.253172 2.53712e-005 1.0272 3.82226e-005 5.78327e-009 3.02619 1.16749e-007 -7.24689 8.7424 -33.1102 0.942121 -3.42515 -28.7691 3.55542 -10.8251 -9.60635 63.1155 -10.1339 -12.7287 -4.77083e-015 7.95139e-016 -0 -4.77083e-015 5.96354e-016 -3.18055e-015 1.65521e-032 5.96354e-016 -1.59028e-015 -4.77083e-015 7.95139e-016 -0 -0.014587 -8.91742e-005 -7.26193e-007 -1.59028e-015 2.18663e-015 -0 -4.77083e-015 7.95139e-016 -0 -0.018731 -0.00117466 5.71953e-005 1.59028e-015 3.97569e-016 -0 -4.77083e-015 7.95139e-016 -0 -0.0123299 -0.00326392 0.000674804 4.77083e-015 3.77691e-015 -4.77083e-015 -4.77083e-015 7.95139e-016 -0 -4.77083e-015 5.96354e-016 -3.18055e-015 1.65521e-032 5.96354e-016 -1.59028e-015 7.17793 8.75346 32.5901 -1.01782 -3.44154 29.7782 -3.65795 -10.8654 9.53969 -63.0069 -9.81299 12.8227 2.74128e-007 3.25558e-007 -2.02333e-008 -3.31043e-032 1.19271e-015 1.59028e-015 5.99687e-007 5.143e-008 6.00082e-009 2.74128e-007 3.25558e-007 -2.02333e-008 0.0149965 -9.19166e-005 -3.30602e-006 5.99681e-007 5.14309e-008 5.9936e-009 2.74128e-007 3.25558e-007 -2.02333e-008 0.0189726 -0.00118958 -6.29713e-005 5.99679e-007 5.14319e-008 5.9861e-009 2.74128e-007 3.25558e-007 -2.02333e-008 0.0122332 -0.00323854 -0.000676414 5.99682e-007 5.14355e-008 5.97867e-009 2.74128e-007 3.25558e-007 -2.02333e-008 -3.31043e-032 1.19271e-015 1.59028e-015 5.99687e-007 5.143e-008 6.00082e-009 -123.728 -56.5426 -137.769 -173.113 46.1065 169.67 -14.5209 44.2577 4.41598 1.81185e-006 3.24295e-006 -5.96668e-007 123.741 -56.5571 137.751 173.111 46.1057 -169.675 14.5007 44.2395 -4.39635 -3.38732e-006 4.76578e-006 -3.27596e-007 
0.000691484 16.9602 -37.0297 0.0996129 -73.2274 -179.851 -0.0879471 0.356447 -0.127151 -0.175108 0.713108 -0.253762 -0.175108 0.713106 -0.253762 1.36789e-005 0.123048 3.20642e-005 -1.4422e-007 2.12128 -4.27665e-008 -7.30205 8.35982 -31.7053 0.952358 -3.38298 -29.8501 3.94034 -10.8784 -10.5632 63.0272 -9.68476 -12.1853 -9.54166e-015 1.98785e-016 1.11319e-014 -9.54166e-015 1.98785e-016 1.11319e-014 -6.36111e-015 3.97569e-016 7.95139e-015 -9.54166e-015 1.98785e-016 1.11319e-014 -0.0146297 -8.94524e-005 4.71226e-006 6.79088e-008 2.39767e-007 -3.44926e-006 -9.54166e-015 1.98785e-016 1.11319e-014 -0.0187807 -0.00117742 5.88927e-005 -1.87591e-031 6.75868e-015 1.59028e-015 -9.54166e-015 1.98785e-016 1.11319e-014 -0.0122505 -0.00324095 0.000670748 4.77083e-015 -2.78299e-015 -1.59028e-015 -9.54166e-015 1.98785e-016 1.11319e-014 -9.54166e-015 1.98785e-016 1.11319e-014 -6.36111e-015 3.97569e-016 7.95139e-015 7.23431 8.37101 31.207 -1.02518 -3.39947 30.816 -4.03843 -10.9177 10.4991 -62.9224 -9.37806 12.2749 6.96448e-007 -6.86635e-007 -9.58873e-006 -5.18565e-008 5.99674e-007 -4.61557e-008 7.39671e-007 -3.58837e-007 -3.53469e-006 6.96448e-007 -6.86635e-007 -9.58873e-006 0.0150112 -9.14436e-005 -1.79952e-006 5.99668e-007 5.18573e-008 6.0411e-009 6.96448e-007 -6.86635e-007 -9.58873e-006 0.0190115 -0.00119132 -5.16785e-005 5.99666e-007 5.18582e-008 6.03357e-009 6.96448e-007 -6.86635e-007 -9.58873e-006 0.0121863 -0.00322484 -0.000668993 5.99669e-007 5.18619e-008 6.02625e-009 6.96448e-007 -6.86635e-007 -9.58873e-006 -5.18565e-008 5.99674e-007 -4.61557e-008 7.39671e-007 -3.58837e-007 -3.53469e-006 -125.158 -56.1559 -139.27 -173.116 46.0966 169.666 -14.2901 44.5106 4.29174 1.74168e-007 8.36598e-008 4.97347e-007 125.17 -56.1699 139.253 173.114 46.0952 -169.671 14.2705 44.4925 -4.27307 -8.10172e-008 3.19935e-006 4.3918e-007 
